<svg width="72" height="70" viewBox="0 0 72 70" fill="none" xmlns="http://www.w3.org/2000/svg">
<rect x="0.478516" width="71.1167" height="70" rx="15" fill="#F7F7F7"/>
<path d="M42.3865 27.5C45.3653 27.5 46.2197 27.5 47.2457 28.2749C47.5098 28.4744 47.7463 28.7071 47.9489 28.9671C48.7362 29.977 48.7362 31.443 48.7362 34.375V40C48.7362 43.5355 48.7362 45.3033 47.6204 46.4017C46.5045 47.5 44.7085 47.5 41.1166 47.5H30.957C27.3651 47.5 25.5691 47.5 24.4533 46.4017C23.3374 45.3033 23.3374 43.5355 23.3374 40V34.375C23.3374 31.443 23.3374 29.977 24.1247 28.9671C24.3274 28.7071 24.5638 28.4744 24.828 28.2749C25.854 27.5 26.7084 27.5 29.6871 27.5" stroke="#858585" stroke-width="3" stroke-linecap="round"/>
<path d="M42.3864 28.75L41.2615 25.9818C40.7761 24.7875 40.3538 23.4326 39.1057 22.8244C38.44 22.5 37.6389 22.5 36.0367 22.5C34.4346 22.5 33.6335 22.5 32.9677 22.8244C31.7197 23.4326 31.2973 24.7875 30.812 25.9818L29.687 28.75" stroke="#858585" stroke-width="3" stroke-linecap="round" stroke-linejoin="round"/>
<path d="M40.4816 37.5C40.4816 39.9162 38.4916 41.875 36.0368 41.875C33.582 41.875 31.592 39.9162 31.592 37.5C31.592 35.0838 33.582 33.125 36.0368 33.125C38.4916 33.125 40.4816 35.0838 40.4816 37.5Z" stroke="#858585" stroke-width="3"/>
<path d="M36.0369 27.5H36.0481" stroke="#858585" stroke-width="3" stroke-linecap="round" stroke-linejoin="round"/>
</svg>
