<svg width="70" height="70" viewBox="0 0 70 70" fill="none" xmlns="http://www.w3.org/2000/svg">
<rect width="70" height="70" rx="15" fill="#F7F7F7"/>
<path d="M41.25 27.5C44.182 27.5 45.023 27.5 46.0329 28.2749C46.2929 28.4744 46.5256 28.7071 46.7251 28.9671C47.5 29.977 47.5 31.443 47.5 34.375V40C47.5 43.5355 47.5 45.3033 46.4017 46.4017C45.3033 47.5 43.5355 47.5 40 47.5H30C26.4645 47.5 24.6967 47.5 23.5983 46.4017C22.5 45.3033 22.5 43.5355 22.5 40V34.375C22.5 31.443 22.5 29.977 23.2749 28.9671C23.4744 28.7071 23.7071 28.4744 23.9671 28.2749C24.977 27.5 25.818 27.5 28.75 27.5" stroke="#858585" stroke-width="3" stroke-linecap="round"/>
<path d="M41.25 28.75L40.1427 25.9818C39.665 24.7875 39.2492 23.4326 38.0208 22.8244C37.3655 22.5 36.577 22.5 35 22.5C33.423 22.5 32.6345 22.5 31.9792 22.8244C30.7508 23.4326 30.335 24.7875 29.8573 25.9818L28.75 28.75" stroke="#858585" stroke-width="3" stroke-linecap="round" stroke-linejoin="round"/>
<path d="M39.375 37.5C39.375 39.9162 37.4162 41.875 35 41.875C32.5838 41.875 30.625 39.9162 30.625 37.5C30.625 35.0838 32.5838 33.125 35 33.125C37.4162 33.125 39.375 35.0838 39.375 37.5Z" stroke="#858585" stroke-width="3"/>
<path d="M35 27.5H35.0112" stroke="#858585" stroke-width="3" stroke-linecap="round" stroke-linejoin="round"/>
</svg>
