<svg width="30" height="30" viewBox="0 0 30 30" fill="none" xmlns="http://www.w3.org/2000/svg">
<g clip-path="url(#clip0_41_275)">
<path d="M29.0887 11.7735C27.9602 9.92567 26.5368 8.27509 24.8749 6.88727L28.3749 3.38727C28.6026 3.15152 28.7286 2.83576 28.7258 2.50802C28.7229 2.18027 28.5915 1.86675 28.3597 1.63499C28.128 1.40323 27.8144 1.27177 27.4867 1.26893C27.1589 1.26608 26.8432 1.39207 26.6074 1.61977L22.8012 5.43102C20.4417 4.02954 17.7442 3.2991 14.9999 3.31852C7.26119 3.31852 2.85119 8.61602 0.911192 11.7735C0.311852 12.7429 -0.00561523 13.8601 -0.00561523 14.9998C-0.00561523 16.1395 0.311852 17.2566 0.911192 18.226C2.03964 20.0739 3.46305 21.7244 5.12494 23.1123L1.62494 26.6123C1.50555 26.7276 1.41033 26.8655 1.34482 27.018C1.2793 27.1705 1.24482 27.3345 1.24338 27.5005C1.24194 27.6665 1.27356 27.8311 1.33641 27.9847C1.39927 28.1383 1.49208 28.2779 1.60945 28.3953C1.72681 28.5126 1.86638 28.6054 2.02 28.6683C2.17362 28.7311 2.33822 28.7628 2.50419 28.7613C2.67017 28.7599 2.83419 28.7254 2.9867 28.6599C3.1392 28.5944 3.27713 28.4992 3.39244 28.3798L7.20744 24.5648C9.56402 25.966 12.2583 26.6977 14.9999 26.681C22.7387 26.681 27.1487 21.3835 29.0887 18.226C29.688 17.2566 30.0055 16.1395 30.0055 14.9998C30.0055 13.8601 29.688 12.7429 29.0887 11.7735ZM3.04119 16.9173C2.68511 16.3411 2.49651 15.6771 2.49651 14.9998C2.49651 14.3224 2.68511 13.6585 3.04119 13.0823C4.70869 10.3748 8.47744 5.81852 14.9999 5.81852C17.0753 5.80689 19.1215 6.30706 20.9574 7.27477L18.4412 9.79102C17.2411 8.99427 15.8023 8.63726 14.369 8.78057C12.9356 8.92389 11.596 9.55869 10.5774 10.5773C9.55886 11.5958 8.92406 12.9355 8.78075 14.3688C8.63744 15.8021 8.99444 17.2409 9.79119 18.441L6.90369 21.3285C5.37257 20.0907 4.06599 18.5985 3.04119 16.9173ZM18.7499 14.9998C18.7499 15.9943 18.3549 16.9482 17.6516 17.6514C16.9483 18.3547 15.9945 18.7498 14.9999 18.7498C14.4431 18.7476 13.8939 18.6194 13.3937 18.3748L18.3749 13.3935C18.6196 13.8938 18.7478 14.4429 18.7499 14.9998ZM11.2499 14.9998C11.2499 14.0052 11.645 13.0514 12.3483 12.3481C13.0516 11.6449 14.0054 11.2498 14.9999 11.2498C15.5568 11.2519 16.1059 11.3801 16.6062 11.6248L11.6249 16.606C11.3803 16.1058 11.2521 15.5566 11.2499 14.9998ZM26.9587 16.9173C25.2912 19.6248 21.5224 24.181 14.9999 24.181C12.9246 24.1926 10.8784 23.6925 9.04244 22.7248L11.5587 20.2085C12.7588 21.0053 14.1976 21.3623 15.6309 21.219C17.0642 21.0756 18.4039 20.4408 19.4224 19.4223C20.441 18.4037 21.0758 17.0641 21.2191 15.6307C21.3624 14.1974 21.0054 12.7586 20.2087 11.5585L23.0962 8.67102C24.6273 9.90887 25.9339 11.4011 26.9587 13.0823C27.3148 13.6585 27.5034 14.3224 27.5034 14.9998C27.5034 15.6771 27.3148 16.3411 26.9587 16.9173Z" fill="#1727A9"/>
</g>
<defs>
<clipPath id="clip0_41_275">
<rect width="30" height="30" fill="white"/>
</clipPath>
</defs>
</svg>
