<svg width="31" height="30" viewBox="0 0 31 30" fill="none" xmlns="http://www.w3.org/2000/svg">
<path d="M18.8125 22.0312C18.7205 24.3462 16.7914 26.3117 14.2071 26.2485C13.6058 26.2338 12.8627 26.0242 11.3764 25.605C7.79952 24.596 4.69444 22.9004 3.94944 19.1019C3.8125 18.4037 3.8125 17.618 3.8125 16.0466L3.8125 13.9534C3.8125 12.382 3.8125 11.5963 3.94944 10.8981C4.69444 7.09957 7.79952 5.40395 11.3764 4.39503C12.8627 3.97581 13.6058 3.76619 14.2071 3.75148C16.7914 3.68826 18.7205 5.65384 18.8125 7.96876" stroke="#CC0202" stroke-width="2" stroke-linecap="round"/>
<path d="M26.3125 15H12.5625M26.3125 15C26.3125 14.1247 23.8196 12.4894 23.1875 11.875M26.3125 15C26.3125 15.8753 23.8196 17.5106 23.1875 18.125" stroke="#CC0202" stroke-width="2" stroke-linecap="round" stroke-linejoin="round"/>
</svg>
