<svg width="31" height="30" viewBox="0 0 31 30" fill="none" xmlns="http://www.w3.org/2000/svg">
<g clip-path="url(#clip0_278_1071)">
<path d="M15.559 25C18.2525 24.997 20.8349 23.9425 22.7395 22.0678C24.6441 20.1931 25.7155 17.6513 25.7185 15V10C25.7185 7.34784 24.6481 4.8043 22.7428 2.92893C20.8376 1.05357 18.2534 0 15.559 0C12.8645 0 10.2804 1.05357 8.37508 2.92893C6.46979 4.8043 5.39941 7.34784 5.39941 10V15C5.40244 17.6513 6.47379 20.1931 8.37842 22.0678C10.283 23.9425 12.8654 24.997 15.559 25ZM15.559 2.5C17.3579 2.50329 19.0978 3.13234 20.4711 4.276C21.8445 5.41966 22.763 7.00432 23.0643 8.75H19.3688C19.032 8.75 18.709 8.8817 18.4708 9.11612C18.2326 9.35054 18.0988 9.66848 18.0988 10C18.0988 10.3315 18.2326 10.6495 18.4708 10.8839C18.709 11.1183 19.032 11.25 19.3688 11.25H23.1786V13.75H19.3688C19.032 13.75 18.709 13.8817 18.4708 14.1161C18.2326 14.3505 18.0988 14.6685 18.0988 15C18.0988 15.3315 18.2326 15.6495 18.4708 15.8839C18.709 16.1183 19.032 16.25 19.3688 16.25H23.0643C22.7658 17.9969 21.8481 19.5831 20.4741 20.7271C19.1001 21.8711 17.3586 22.4988 15.559 22.4988C13.7593 22.4988 12.0179 21.8711 10.6438 20.7271C9.2698 19.5831 8.35207 17.9969 8.0536 16.25H11.7491C12.0859 16.25 12.409 16.1183 12.6471 15.8839C12.8853 15.6495 13.0191 15.3315 13.0191 15C13.0191 14.6685 12.8853 14.3505 12.6471 14.1161C12.409 13.8817 12.0859 13.75 11.7491 13.75H7.9393V11.25H11.7491C12.0859 11.25 12.409 11.1183 12.6471 10.8839C12.8853 10.6495 13.0191 10.3315 13.0191 10C13.0191 9.66848 12.8853 9.35054 12.6471 9.11612C12.409 8.8817 12.0859 8.75 11.7491 8.75H8.0536C8.35491 7.00432 9.2734 5.41966 10.6468 4.276C12.0202 3.13234 13.76 2.50329 15.559 2.5Z" fill="#858585"/>
<path d="M29.5285 15C29.1917 15 28.8687 15.1317 28.6305 15.3661C28.3924 15.6005 28.2586 15.9185 28.2586 16.25C28.2552 19.2327 27.05 22.0922 24.9072 24.2013C22.7645 26.3104 19.8593 27.4967 16.8291 27.5H14.2892C11.259 27.4964 8.35406 26.3099 6.21141 24.2009C4.06877 22.0919 2.86341 19.2326 2.85971 16.25C2.85971 15.9185 2.72591 15.6005 2.48775 15.3661C2.24959 15.1317 1.92658 15 1.58977 15C1.25296 15 0.929943 15.1317 0.691782 15.3661C0.453621 15.6005 0.319824 15.9185 0.319824 16.25C0.324193 19.8954 1.79737 23.3903 4.41619 25.968C7.035 28.5457 10.5856 29.9957 14.2892 30H16.8291C20.5327 29.9957 24.0833 28.5457 26.7021 25.968C29.3209 23.3903 30.7941 19.8954 30.7985 16.25C30.7985 15.9185 30.6647 15.6005 30.4265 15.3661C30.1883 15.1317 29.8653 15 29.5285 15Z" fill="#858585"/>
</g>
<defs>
<clipPath id="clip0_278_1071">
<rect width="30.4786" height="30" fill="white" transform="translate(0.319824)"/>
</clipPath>
</defs>
</svg>
