<svg width="28" height="27" viewBox="0 0 28 27" fill="none" xmlns="http://www.w3.org/2000/svg">
<path d="M14 27C21.732 27 28 20.9558 28 13.5C28 6.04416 21.732 0 14 0C6.26801 0 0 6.04416 0 13.5C0 20.9558 6.26801 27 14 27Z" fill="url(#paint0_linear_256_3453)"/>
<path fill-rule="evenodd" clip-rule="evenodd" d="M14.245 19.6805C14.8607 19.639 15.4711 19.5429 16.0685 19.3936C16.8057 19.6104 17.585 19.6595 18.3452 19.537C18.3754 19.5333 18.4058 19.531 18.4362 19.5303C18.7075 19.5303 19.0636 19.6822 19.5825 20.0028V19.4754C19.5826 19.3842 19.6079 19.2946 19.6557 19.2159C19.7035 19.1372 19.7722 19.0721 19.8546 19.0274C20.081 18.9037 20.2901 18.7633 20.482 18.6064C21.238 17.9887 21.665 17.1652 21.665 16.2928C21.6638 15.9992 21.6175 15.7162 21.5259 15.444C21.7551 15.0322 21.938 14.6019 22.0745 14.1531C22.5125 14.7869 22.7475 15.5311 22.75 16.2928C22.75 17.4783 22.1777 18.5836 21.1881 19.3919C21.0227 19.5264 20.8488 19.651 20.6675 19.7648V20.9976C20.6675 21.422 20.16 21.6658 19.8021 21.4135C19.4637 21.1696 19.1133 20.9415 18.7521 20.7301C18.6487 20.6704 18.5411 20.6177 18.4301 20.5723C18.132 20.6156 17.829 20.6373 17.521 20.6373C16.2855 20.6373 15.1436 20.2804 14.245 19.6805ZM7.71225 17.215C6.15125 15.9384 5.25 14.1995 5.25 12.3356C5.25 8.52778 8.97575 5.48438 13.5249 5.48438C18.074 5.48438 21.8006 8.52778 21.8006 12.3356C21.8006 16.1443 18.074 19.1877 13.5249 19.1877C13.0127 19.1877 12.5087 19.1497 12.0129 19.0738C11.7985 19.1227 10.9419 19.6138 9.70725 20.4829C9.26012 20.7984 8.62575 20.4938 8.62575 19.9631V17.8605C8.30558 17.6668 8.00029 17.451 7.71225 17.215ZM12.0426 17.777C12.0805 17.777 12.1185 17.7798 12.1564 17.7854C12.6026 17.858 13.0611 17.8951 13.5249 17.8951C17.3679 17.8951 20.4435 15.3824 20.4435 12.3356C20.4435 9.28969 17.3679 6.777 13.5249 6.777C9.68362 6.777 6.60625 9.28969 6.60625 12.3356C6.60625 13.8088 7.32463 15.1959 8.59512 16.2337C8.91596 16.4947 9.26479 16.7287 9.64162 16.9357C9.8525 17.0505 9.98288 17.2648 9.98288 17.496V18.7085C10.9594 18.0765 11.6016 17.777 12.0426 17.777ZM9.99775 13.6291C9.39837 13.6291 8.91275 13.165 8.91275 12.5947C8.91275 12.0234 9.39837 11.5602 9.99775 11.5602C10.5971 11.5602 11.0828 12.0234 11.0828 12.5947C11.0828 13.1659 10.5971 13.6291 9.99775 13.6291ZM13.5249 13.6291C12.9255 13.6291 12.4399 13.165 12.4399 12.5947C12.4399 12.0234 12.9255 11.5602 13.5249 11.5602C14.1242 11.5602 14.6099 12.0234 14.6099 12.5947C14.6099 13.1659 14.1242 13.6291 13.5249 13.6291ZM17.052 13.6291C16.4526 13.6291 15.967 13.165 15.967 12.5947C15.967 12.0234 16.4526 11.5602 17.052 11.5602C17.6514 11.5602 18.137 12.0234 18.137 12.5947C18.137 13.1659 17.6514 13.6291 17.052 13.6291Z" fill="white"/>
<defs>
<linearGradient id="paint0_linear_256_3453" x1="14" y1="0" x2="14" y2="27" gradientUnits="userSpaceOnUse">
<stop stop-color="#29F4FB"/>
<stop offset="1" stop-color="#189195"/>
</linearGradient>
</defs>
</svg>
